<svg width="24" height="24" viewBox="0 0 24 24" fill="none" xmlns="http://www.w3.org/2000/svg">
<path d="M44 0.101057H-6.99924V26.9002H44V0.101057Z" fill="white"/>
<path d="M43.9577 0.000251943H-6.99875V2.12014H43.9577V0.000251943Z" fill="#B22234"/>
<path d="M43.9577 4.14694H-6.99873V6.26683H43.9577V4.14694Z" fill="#B22234"/>
<path d="M43.9577 8.29363H-6.99873V10.4135H43.9577V8.29363Z" fill="#B22234"/>
<path d="M43.9577 12.4403H-6.99873V14.5602H43.9577V12.4403Z" fill="#B22234"/>
<path d="M43.9577 16.5867H-6.99873V18.7066H43.9577V16.5867Z" fill="#B22234"/>
<path d="M43.9577 20.7334H-6.99873V22.8533H43.9577V20.7334Z" fill="#B22234"/>
<path d="M43.9577 24.8801H-6.99873V27H43.9577V24.8801Z" fill="#B22234"/>
<path d="M13.3516 0H-7V14.5607H13.3516V0Z" fill="#3C3B6E"/>
<path d="M-5.26908 0.557486L-5.07866 1.152H-4.4623L-4.96077 1.5192L-4.77035 2.11371L-5.26908 1.74626L-5.76754 2.11371L-5.57713 1.5192L-6.07585 1.152H-5.45949L-5.26908 0.557486Z" fill="white"/>
<path d="M-3.59171 2.05174L-3.4013 2.646H-2.78494L-3.28341 3.0132L-3.09299 3.60771L-3.59171 3.24026L-4.09018 3.60771L-3.89976 3.0132L-4.39849 2.646H-3.78213L-3.59171 2.05174Z" fill="white"/>
<path d="M-3.59171 4.97083L-3.4013 5.56509H-2.78494L-3.28341 5.93254L-3.09299 6.5268L-3.59171 6.1596L-4.09018 6.5268L-3.89976 5.93254L-4.39849 5.56509H-3.78213L-3.59171 4.97083Z" fill="white"/>
<path d="M-3.59171 7.88991L-3.4013 8.48417H-2.78494L-3.28341 8.85163L-3.09299 9.44589L-3.59171 9.07869L-4.09018 9.44589L-3.89976 8.85163L-4.39849 8.48417H-3.78213L-3.59171 7.88991Z" fill="white"/>
<path d="M-3.59171 10.809L-3.4013 11.4033H-2.78494L-3.28341 11.7707L-3.09299 12.365L-3.59171 11.9978L-4.09018 12.365L-3.89976 11.7707L-4.39849 11.4033H-3.78213L-3.59171 10.809Z" fill="white"/>
<path d="M-0.191628 2.05174L-0.00121069 2.646H0.615147L0.116679 3.0132L0.307096 3.60771L-0.191628 3.24026L-0.690095 3.60771L-0.499678 3.0132L-0.998402 2.646H-0.382045L-0.191628 2.05174Z" fill="white"/>
<path d="M-0.191628 4.97083L-0.00121069 5.56509H0.615147L0.116679 5.93254L0.307096 6.5268L-0.191628 6.1596L-0.690095 6.5268L-0.499678 5.93254L-0.998402 5.56509H-0.382045L-0.191628 4.97083Z" fill="white"/>
<path d="M-0.191628 7.88991L-0.00121069 8.48417H0.615147L0.116679 8.85163L0.307096 9.44589L-0.191628 9.07869L-0.690095 9.44589L-0.499678 8.85163L-0.998402 8.48417H-0.382045L-0.191628 7.88991Z" fill="white"/>
<path d="M-0.191628 10.809L-0.00121069 11.4033H0.615147L0.116679 11.7707L0.307096 12.365L-0.191628 11.9978L-0.690095 12.365L-0.499678 11.7707L-0.998402 11.4033H-0.382045L-0.191628 10.809Z" fill="white"/>
<path d="M3.20846 2.05174L3.39913 2.646H4.01523L3.51676 3.0132L3.70718 3.60771L3.20846 3.24026L2.70999 3.60771L2.90041 3.0132L2.40168 2.646H3.01804L3.20846 2.05174Z" fill="white"/>
<path d="M3.20846 4.97083L3.39913 5.56509H4.01523L3.51676 5.93254L3.70718 6.5268L3.20846 6.1596L2.70999 6.5268L2.90041 5.93254L2.40168 5.56509H3.01804L3.20846 4.97083Z" fill="white"/>
<path d="M3.20846 7.88991L3.39913 8.48417H4.01523L3.51676 8.85163L3.70718 9.44589L3.20846 9.07869L2.70999 9.44589L2.90041 8.85163L2.40168 8.48417H3.01804L3.20846 7.88991Z" fill="white"/>
<path d="M3.20846 10.809L3.39913 11.4033H4.01523L3.51676 11.7707L3.70718 12.365L3.20846 11.9978L2.70999 12.365L2.90041 11.7707L2.40168 11.4033H3.01804L3.20846 10.809Z" fill="white"/>
<path d="M6.60855 2.05174L6.79922 2.646H7.41558L6.91685 3.0132L7.10727 3.60771L6.60855 3.24026L6.11008 3.60771L6.30049 3.0132L5.80177 2.646H6.41813L6.60855 2.05174Z" fill="white"/>
<path d="M6.60855 4.97083L6.79922 5.56509H7.41558L6.91685 5.93254L7.10727 6.5268L6.60855 6.1596L6.11008 6.5268L6.30049 5.93254L5.80177 5.56509H6.41813L6.60855 4.97083Z" fill="white"/>
<path d="M6.60855 7.88991L6.79922 8.48417H7.41558L6.91685 8.85163L7.10727 9.44589L6.60855 9.07869L6.11008 9.44589L6.30049 8.85163L5.80177 8.48417H6.41813L6.60855 7.88991Z" fill="white"/>
<path d="M6.60855 10.809L6.79922 11.4033H7.41558L6.91685 11.7707L7.10727 12.365L6.60855 11.9978L6.11008 12.365L6.30049 11.7707L5.80177 11.4033H6.41813L6.60855 10.809Z" fill="white"/>
<path d="M10.0089 2.05174L10.1993 2.646H10.8154L10.3169 3.0132L10.5074 3.60771L10.0089 3.24026L9.51016 3.60771L9.70058 3.0132L9.20211 2.646H9.81821L10.0089 2.05174Z" fill="white"/>
<path d="M10.0089 4.97083L10.1993 5.56509H10.8154L10.3169 5.93254L10.5074 6.5268L10.0089 6.1596L9.51016 6.5268L9.70058 5.93254L9.20211 5.56509H9.81821L10.0089 4.97083Z" fill="white"/>
<path d="M10.0089 7.88991L10.1993 8.48417H10.8154L10.3169 8.85163L10.5074 9.44589L10.0089 9.07869L9.51016 9.44589L9.70058 8.85163L9.20211 8.48417H9.81821L10.0089 7.88991Z" fill="white"/>
<path d="M10.0089 10.809L10.1993 11.4033H10.8154L10.3169 11.7707L10.5074 12.365L10.0089 11.9978L9.51016 12.365L9.70058 11.7707L9.20211 11.4033H9.81821L10.0089 10.809Z" fill="white"/>
<path d="M-5.26908 3.47657L-5.07866 4.07109H-4.4623L-4.96077 4.43829L-4.77035 5.0328L-5.26908 4.66534L-5.76754 5.0328L-5.57713 4.43829L-6.07585 4.07109H-5.45949L-5.26908 3.47657Z" fill="white"/>
<path d="M-5.26908 6.39591L-5.07866 6.99017H-4.4623L-4.96077 7.35763L-4.77035 7.95189L-5.26908 7.58469L-5.76754 7.95189L-5.57713 7.35763L-6.07585 6.99017H-5.45949L-5.26908 6.39591Z" fill="white"/>
<path d="M-5.26908 9.315L-5.07866 9.90926H-4.4623L-4.96077 10.2767L-4.77035 10.871L-5.26908 10.5038L-5.76754 10.871L-5.57713 10.2767L-6.07585 9.90926H-5.45949L-5.26908 9.315Z" fill="white"/>
<path d="M-5.26908 12.2341L-5.07866 12.8283H-4.4623L-4.96077 13.1958L-4.77035 13.7901L-5.26908 13.4229L-5.76754 13.7901L-5.57713 13.1958L-6.07585 12.8283H-5.45949L-5.26908 12.2341Z" fill="white"/>
<path d="M-1.91435 0.557486L-1.72393 1.152H-1.10758L-1.60604 1.5192L-1.41563 2.11371L-1.91435 1.74626L-2.41282 2.11371L-2.2224 1.5192L-2.72113 1.152H-2.10477L-1.91435 0.557486Z" fill="white"/>
<path d="M-1.91435 3.47657L-1.72393 4.07109H-1.10758L-1.60604 4.43829L-1.41563 5.0328L-1.91435 4.66534L-2.41282 5.0328L-2.2224 4.43829L-2.72113 4.07109H-2.10477L-1.91435 3.47657Z" fill="white"/>
<path d="M-1.91435 6.39591L-1.72393 6.99017H-1.10758L-1.60604 7.35763L-1.41563 7.95189L-1.91435 7.58469L-2.41282 7.95189L-2.2224 7.35763L-2.72113 6.99017H-2.10477L-1.91435 6.39591Z" fill="white"/>
<path d="M-1.91435 9.315L-1.72393 9.90926H-1.10758L-1.60604 10.2767L-1.41563 10.871L-1.91435 10.5038L-2.41282 10.871L-2.2224 10.2767L-2.72113 9.90926H-2.10477L-1.91435 9.315Z" fill="white"/>
<path d="M-1.91435 12.2341L-1.72393 12.8283H-1.10758L-1.60604 13.1958L-1.41563 13.7901L-1.91435 13.4229L-2.41282 13.7901L-2.2224 13.1958L-2.72113 12.8283H-2.10477L-1.91435 12.2341Z" fill="white"/>
<path d="M1.5311 0.557486L1.72177 1.152H2.33787L1.8394 1.5192L2.02982 2.11371L1.5311 1.74626L1.03263 2.11371L1.22305 1.5192L0.724322 1.152H1.34068L1.5311 0.557486Z" fill="white"/>
<path d="M1.5311 3.47657L1.72177 4.07109H2.33787L1.8394 4.43829L2.02982 5.0328L1.5311 4.66534L1.03263 5.0328L1.22305 4.43829L0.724322 4.07109H1.34068L1.5311 3.47657Z" fill="white"/>
<path d="M1.5311 6.39591L1.72177 6.99017H2.33787L1.8394 7.35763L2.02982 7.95189L1.5311 7.58469L1.03263 7.95189L1.22305 7.35763L0.724322 6.99017H1.34068L1.5311 6.39591Z" fill="white"/>
<path d="M1.5311 9.315L1.72177 9.90926H2.33787L1.8394 10.2767L2.02982 10.871L1.5311 10.5038L1.03263 10.871L1.22305 10.2767L0.724322 9.90926H1.34068L1.5311 9.315Z" fill="white"/>
<path d="M1.5311 12.2341L1.72177 12.8283H2.33787L1.8394 13.1958L2.02982 13.7901L1.5311 13.4229L1.03263 13.7901L1.22305 13.1958L0.724322 12.8283H1.34068L1.5311 12.2341Z" fill="white"/>
<path d="M4.90863 0.557486L5.09905 1.152H5.7154L5.21668 1.5192L5.4071 2.11371L4.90863 1.74626L4.4099 2.11371L4.60058 1.5192L4.10185 1.152H4.71821L4.90863 0.557486Z" fill="white"/>
<path d="M4.90863 3.47657L5.09905 4.07109H5.7154L5.21668 4.43829L5.4071 5.0328L4.90863 4.66534L4.4099 5.0328L4.60058 4.43829L4.10185 4.07109H4.71821L4.90863 3.47657Z" fill="white"/>
<path d="M4.90863 6.39591L5.09905 6.99017H5.7154L5.21668 7.35763L5.4071 7.95189L4.90863 7.58469L4.4099 7.95189L4.60058 7.35763L4.10185 6.99017H4.71821L4.90863 6.39591Z" fill="white"/>
<path d="M4.90863 9.315L5.09905 9.90926H5.7154L5.21668 10.2767L5.4071 10.871L4.90863 10.5038L4.4099 10.871L4.60058 10.2767L4.10185 9.90926H4.71821L4.90863 9.315Z" fill="white"/>
<path d="M4.90863 12.2341L5.09905 12.8283H5.7154L5.21668 13.1958L5.4071 13.7901L4.90863 13.4229L4.4099 13.7901L4.60058 13.1958L4.10185 12.8283H4.71821L4.90863 12.2341Z" fill="white"/>
<path d="M8.28616 0.557486L8.47658 1.152H9.09294L8.59421 1.5192L8.78463 2.11371L8.28616 1.74626L7.78744 2.11371L7.97785 1.5192L7.47939 1.152H8.09549L8.28616 0.557486Z" fill="white"/>
<path d="M8.28616 3.47657L8.47658 4.07109H9.09294L8.59421 4.43829L8.78463 5.0328L8.28616 4.66534L7.78744 5.0328L7.97785 4.43829L7.47939 4.07109H8.09549L8.28616 3.47657Z" fill="white"/>
<path d="M8.28616 6.39591L8.47658 6.99017H9.09294L8.59421 7.35763L8.78463 7.95189L8.28616 7.58469L7.78744 7.95189L7.97785 7.35763L7.47939 6.99017H8.09549L8.28616 6.39591Z" fill="white"/>
<path d="M8.28616 9.315L8.47658 9.90926H9.09294L8.59421 10.2767L8.78463 10.871L8.28616 10.5038L7.78744 10.871L7.97785 10.2767L7.47939 9.90926H8.09549L8.28616 9.315Z" fill="white"/>
<path d="M8.28616 12.2341L8.47658 12.8283H9.09294L8.59421 13.1958L8.78463 13.7901L8.28616 13.4229L7.78744 13.7901L7.97785 13.1958L7.47939 12.8283H8.09549L8.28616 12.2341Z" fill="white"/>
<path d="M11.7314 0.557486L11.922 1.152H12.5384L12.0397 1.5192L12.2301 2.11371L11.7314 1.74626L11.2329 2.11371L11.4233 1.5192L10.9246 1.152H11.5409L11.7314 0.557486Z" fill="white"/>
<path d="M11.7314 3.47657L11.922 4.07109H12.5384L12.0397 4.43829L12.2301 5.0328L11.7314 4.66534L11.2329 5.0328L11.4233 4.43829L10.9246 4.07109H11.5409L11.7314 3.47657Z" fill="white"/>
<path d="M11.7314 6.39591L11.922 6.99017H12.5384L12.0397 7.35763L12.2301 7.95189L11.7314 7.58469L11.2329 7.95189L11.4233 7.35763L10.9246 6.99017H11.5409L11.7314 6.39591Z" fill="white"/>
<path d="M11.7314 9.315L11.922 9.90926H12.5384L12.0397 10.2767L12.2301 10.871L11.7314 10.5038L11.2329 10.871L11.4233 10.2767L10.9246 9.90926H11.5409L11.7314 9.315Z" fill="white"/>
<path d="M11.7314 12.2341L11.922 12.8283H12.5384L12.0397 13.1958L12.2301 13.7901L11.7314 13.4229L11.2329 13.7901L11.4233 13.1958L10.9246 12.8283H11.5409L11.7314 12.2341Z" fill="white"/>
</svg>
